REM DIRINDEX 1\2,1\3,1\4,1\5,1\6
REM DIRNAME folder01,folder02,folder03,folder04,folder05,folder06
TITLE ""
FILE "DISC2Track12.mp3" MP3
  TRACK 01 AUDIO
    TITLE "0:"
    INDEX 01 00:00:00
  TRACK 02 AUDIO
    TITLE "3:cjc129_1278"
    INDEX 01 00:00:05
  TRACK 03 AUDIO
    TITLE "0:"
    INDEX 01 00:01:42
  TRACK 04 AUDIO
    TITLE "5:cjc129_1279"
    INDEX 01 00:01:71
  TRACK 05 AUDIO
    TITLE "0:"
    INDEX 01 00:03:17
  TRACK 06 AUDIO
    TITLE "4:cjc129_1280"
    INDEX 01 00:04:05
  TRACK 07 AUDIO
    TITLE "0:"
    INDEX 01 00:05:40
  TRACK 08 AUDIO
    TITLE "6:cjc129_1281"
    INDEX 01 00:05:71
  TRACK 09 AUDIO
    TITLE "0:"
    INDEX 01 00:11:29
  TRACK 10 AUDIO
    TITLE "3:cjc129_1282"
    INDEX 01 00:13:04
  TRACK 11 AUDIO
    TITLE "0:"
    INDEX 01 00:14:29
  TRACK 12 AUDIO
    TITLE "5:cjc129_1283"
    INDEX 01 00:14:60
  TRACK 13 AUDIO
    TITLE "0:"
    INDEX 01 00:16:06
  TRACK 14 AUDIO
    TITLE "4:cjc129_1284"
    INDEX 01 00:17:00
  TRACK 15 AUDIO
    TITLE "0:"
    INDEX 01 00:18:23
  TRACK 16 AUDIO
    TITLE "6:cjc129_1285"
    INDEX 01 00:18:54
  TRACK 17 AUDIO
    TITLE "0:"
    INDEX 01 00:23:26
  TRACK 18 AUDIO
    TITLE "3:cjc129_1286"
    INDEX 01 00:25:01
  TRACK 19 AUDIO
    TITLE "0:"
    INDEX 01 00:26:09
  TRACK 20 AUDIO
    TITLE "5:cjc129_1287"
    INDEX 01 00:26:42
  TRACK 21 AUDIO
    TITLE "0:"
    INDEX 01 00:29:34
  TRACK 22 AUDIO
    TITLE "4:cjc129_1288"
    INDEX 01 00:30:24
  TRACK 23 AUDIO
    TITLE "0:"
    INDEX 01 00:31:33
  TRACK 24 AUDIO
    TITLE "6:cjc129_1289"
    INDEX 01 00:31:69
  TRACK 25 AUDIO
    TITLE "0:"
    INDEX 01 00:36:15
  TRACK 26 AUDIO
    TITLE "3:cjc129_1290"
    INDEX 01 00:37:67
  TRACK 27 AUDIO
    TITLE "0:"
    INDEX 01 00:39:39
  TRACK 28 AUDIO
    TITLE "5:cjc129_1291"
    INDEX 01 00:39:70
  TRACK 29 AUDIO
    TITLE "0:"
    INDEX 01 00:43:07
  TRACK 30 AUDIO
    TITLE "4:cjc129_1292"
    INDEX 01 00:44:01
  TRACK 31 AUDIO
    TITLE "0:"
    INDEX 01 00:45:49
  TRACK 32 AUDIO
    TITLE "6:cjc129_1293"
    INDEX 01 00:46:06
  TRACK 33 AUDIO
    TITLE "0:"
    INDEX 01 00:50:25
  TRACK 34 AUDIO
    TITLE "3:cjc129_1294"
    INDEX 01 00:52:00
  TRACK 35 AUDIO
    TITLE "0:"
    INDEX 01 00:53:13
  TRACK 36 AUDIO
    TITLE "5:cjc129_1295"
    INDEX 01 00:53:47
  TRACK 37 AUDIO
    TITLE "0:"
    INDEX 01 00:55:73
  TRACK 38 AUDIO
    TITLE "4:cjc129_1296"
    INDEX 01 00:56:65
  TRACK 39 AUDIO
    TITLE "0:"
    INDEX 01 00:58:01
  TRACK 40 AUDIO
    TITLE "6:cjc129_1297"
    INDEX 01 00:58:38
  TRACK 41 AUDIO
    TITLE "0:"
    INDEX 01 01:03:53
  TRACK 42 AUDIO
    TITLE "3:cjc129_1298"
    INDEX 01 01:05:28
  TRACK 43 AUDIO
    TITLE "0:"
    INDEX 01 01:06:38
  TRACK 44 AUDIO
    TITLE "5:cjc129_1299"
    INDEX 01 01:06:73
  TRACK 45 AUDIO
    TITLE "0:"
    INDEX 01 01:09:30
  TRACK 46 AUDIO
    TITLE "4:cjc129_1300"
    INDEX 01 01:10:20
  TRACK 47 AUDIO
    TITLE "0:"
    INDEX 01 01:11:27
  TRACK 48 AUDIO
    TITLE "6:cjc129_1301"
    INDEX 01 01:11:62
  TRACK 49 AUDIO
    TITLE "0:"
    INDEX 01 01:16:61
  TRACK 50 AUDIO
    TITLE "3:cjc129_1302"
    INDEX 01 01:18:37
  TRACK 51 AUDIO
    TITLE "0:"
    INDEX 01 01:19:50
  TRACK 52 AUDIO
    TITLE "5:cjc129_1303"
    INDEX 01 01:20:06
  TRACK 53 AUDIO
    TITLE "0:"
    INDEX 01 01:22:07
  TRACK 54 AUDIO
    TITLE "4:cjc129_1304"
    INDEX 01 01:22:70
  TRACK 55 AUDIO
    TITLE "0:"
    INDEX 01 01:24:10
  TRACK 56 AUDIO
    TITLE "6:cjc129_1305"
    INDEX 01 01:24:43
  TRACK 57 AUDIO
    TITLE "0:"
    INDEX 01 01:29:52
  TRACK 58 AUDIO
    TITLE "3:cjc129_1306"
    INDEX 01 01:31:30
  TRACK 59 AUDIO
    TITLE "0:"
    INDEX 01 01:32:45
  TRACK 60 AUDIO
    TITLE "5:cjc129_1307"
    INDEX 01 01:33:03
  TRACK 61 AUDIO
    TITLE "0:"
    INDEX 01 01:37:40
  TRACK 62 AUDIO
    TITLE "4:cjc129_1308"
    INDEX 01 01:38:30
  TRACK 63 AUDIO
    TITLE "0:"
    INDEX 01 01:39:45
  TRACK 64 AUDIO
    TITLE "6:cjc129_1309"
    INDEX 01 01:40:03
  TRACK 65 AUDIO
    TITLE "0:"
    INDEX 01 01:44:64
